Coordinates
version=1
nRows=26
nColumns=24
inDegrees=yes

Units are S.I. units (second, meters, Newtons, ...)
Angles are in degrees.

endheader
time	pelvis_tilt	pelvis_list	pelvis_rotation	pelvis_tx	pelvis_ty	pelvis_tz	hip_flexion_r	hip_adduction_r	hip_rotation_r	knee_angle_r	ankle_angle_r	subtalar_angle_r	mtp_angle_r	hip_flexion_l	hip_adduction_l	hip_rotation_l	knee_angle_l	ankle_angle_l	subtalar_angle_l	mtp_angle_l	lumbar_extension	lumbar_bending	lumbar_rotation
      1.15683333	      2.92309786	      4.08053424	     -4.52299654	      0.16871502	      1.02486235	      0.25658570	     12.19078228	     -3.59592388	     -0.82077118	    -63.26764080	      2.77526302	    -22.19841146	     -1.95013149	      4.83755698	      7.28210464	     -0.07832037	    -12.19755337	      3.17022714	    -14.94087983	      5.50152597	     -5.61775671	     -5.44750666	      5.35095027
      1.16100000	      2.89411135	      3.95563262	     -4.50322091	      0.17384272	      1.02554747	      0.25652053	     12.68911115	     -3.40924305	     -0.75208397	    -62.69265364	      3.00611998	    -22.11235368	     -2.00250568	      4.37159787	      7.19266168	      0.08171896	    -11.87564454	      3.24188120	    -15.07925251	      5.40741198	     -5.62568288	     -5.33094487	      5.08094185
      1.16516667	      2.85459808	      3.80689735	     -4.49022048	      0.17894728	      1.02619317	      0.25649739	     13.17934344	     -3.18253898	     -0.66232623	    -62.04166601	      3.20342079	    -22.00907777	     -2.01136606	      3.93673507	      7.06352724	      0.16057199	    -11.59753539	      3.34608842	    -15.08094467	      5.37667037	     -5.63933383	     -5.17985272	      4.97553475
      1.16933333	      2.83712019	      3.65578566	     -4.45703518	      0.18406190	      1.02685667	      0.25644894	     13.61844123	     -2.96246891	     -0.59663602	    -61.31659202	      3.40068370	    -21.86867396	     -2.01634341	      3.47076091	      6.93493235	      0.26563824	    -11.30551606	      3.44095057	    -15.10728113	      5.34049001	     -5.67659116	     -5.03005529	      4.79751600
      1.17350000	      2.83442250	      3.54789585	     -4.41444169	      0.18917539	      1.02746771	      0.25637840	     14.03733348	     -2.80544245	     -0.55003267	    -60.55983482	      3.60229410	    -21.69071366	     -2.02097163	      2.96802552	      6.86162045	      0.43991105	    -10.95960573	      3.52179918	    -15.20980800	      5.26173233	     -5.73097714	     -4.93141163	      4.47301510
      1.17766667	      2.79129963	      3.40135627	     -4.37592381	      0.19430027	      1.02801861	      0.25636052	     14.46937233	     -2.58553066	     -0.48325544	    -59.71692368	      3.77090819	    -21.56119019	     -2.01715757	      2.52962210	      6.72888542	      0.51688446	    -10.66347212	      3.59572895	    -15.21501041	      5.22619729	     -5.73522628	     -4.78627073	      4.33832473
      1.18183333	      2.77409833	      3.26912522	     -4.32030995	      0.19942519	      1.02856241	      0.25632321	     14.85382117	     -2.39500637	     -0.44163995	    -58.81951976	      3.93104407	    -21.39857388	     -2.00898792	      2.05428948	      6.61507001	      0.63220974	    -10.34615253	      3.67689748	    -15.23780146	      5.18377482	     -5.77172632	     -4.65719907	      4.12176967
      1.18600000	      2.78705580	      3.15815762	     -4.25774910	      0.20454741	      1.02909005	      0.25626468	     15.19389507	     -2.24119871	     -0.41642709	    -57.88120997	      4.07498132	    -21.24872944	     -1.99100265	      1.52742822	      6.53179057	      0.80201922	     -9.98425607	      3.75774199	    -15.32230464	      5.10122136	     -5.84678938	     -4.55802203	      3.77190173
      1.19016667	      2.72652560	      3.03199848	     -4.19830872	      0.20968237	      1.02949238	      0.25625011	     15.59136955	     -2.05401866	     -0.37452095	    -56.87914331	      4.20497567	    -21.11071272	     -1.97914943	      1.10459738	      6.41390258	      0.87972590	     -9.67383384	      3.82016049	    -15.31359375	      5.06470793	     -5.82647986	     -4.43416660	      3.62453013
      1.19433333	      2.75144228	      2.92060163	     -4.12020792	      0.21480993	      1.02997022	      0.25619347	     15.87505677	     -1.90853402	     -0.37105346	    -55.82661958	      4.30412822	    -20.98954851	     -1.95485254	      0.56458168	      6.32445365	      1.03941907	     -9.31047104	      3.90761359	    -15.37097496	      4.98753990	     -5.91499788	     -4.33493675	      3.27937878
      1.19850000	      2.71462249	      2.80941867	     -4.04017371	      0.21994469	      1.03031576	      0.25615942	     16.20864281	     -1.75359576	     -0.35721567	    -54.72647210	      4.39167169	    -20.88045153	     -1.92731414	      0.10291487	      6.22488016	      1.17246578	     -8.96889192	      3.97209928	    -15.40842766	      4.90714475	     -5.93067511	     -4.23015890	      3.00925764
      1.20266667	      2.70258315	      2.70025346	     -3.96427049	      0.22507296	      1.03065854	      0.25614392	     16.49692920	     -1.60442320	     -0.34344827	    -53.57590774	      4.46428151	    -20.79440999	     -1.89740522	     -0.38741365	      6.12540287	      1.28516756	     -8.62082843	      4.03150623	    -15.42148063	      4.82404899	     -5.97540468	     -4.13226165	      2.74917992
      1.20683333	      2.66862473	      2.59596302	     -3.87498288	      0.23022677	      1.03091945	      0.25610245	     16.78876411	     -1.47177220	     -0.35711819	    -52.38141728	      4.50414056	    -20.71906065	     -1.87271379	     -0.84927319	      6.02777046	      1.39146824	     -8.28385084	      4.11955277	    -15.42603502	      4.75594896	     -5.98049544	     -4.02858911	      2.49959846
      1.21100000	      2.61379635	      2.49815100	     -3.79237492	      0.23537039	      1.03110105	      0.25609403	     17.08947637	     -1.34135192	     -0.35713530	    -51.14866659	      4.55364353	    -20.63001074	     -1.85810196	     -1.27863747	      5.93027913	      1.46324499	     -7.96253104	      4.17511386	    -15.39489082	      4.71736046	     -5.96593007	     -3.93376598	      2.32002246
      1.21516667	      2.61726096	      2.40870597	     -3.70167155	      0.24050695	      1.03131748	      0.25607377	     17.30714013	     -1.23122578	     -0.37180183	    -49.87101701	      4.53731655	    -20.63754187	     -1.83294947	     -1.79151625	      5.84866387	      1.59997554	     -7.59881305	      4.26514523	    -15.41205918	      4.64380026	     -6.03221369	     -3.85950686	      1.96647966
      1.21933333	      2.58088762	      2.31334053	     -3.60794148	      0.24566703	      1.03146058	      0.25605991	     17.54327391	     -1.11654461	     -0.39543896	    -48.54120329	      4.51368805	    -20.62403699	     -1.80921319	     -2.25090143	      5.75315368	      1.70364856	     -7.25748131	      4.33882300	    -15.40792830	      4.57387615	     -6.04040599	     -3.76921819	      1.70208989
      1.22350000	      2.54233757	      2.23522426	     -3.52081434	      0.25081699	      1.03151096	      0.25605461	     17.77610303	     -1.02478762	     -0.41899997	    -47.19458773	      4.48191566	    -20.61521080	     -1.78725547	     -2.70328013	      5.67465088	      1.79188652	     -6.92180245	      4.41990207	    -15.39319166	      4.50720167	     -6.04359774	     -3.69794354	      1.44547543
      1.22766667	      2.52816627	      2.14999485	     -3.42976214	      0.25598081	      1.03159606	      0.25605015	     17.95219960	     -0.93129411	     -0.45191004	    -45.78806166	      4.41945696	    -20.62691902	     -1.76818563	     -3.18544800	      5.58774848	      1.88116490	     -6.58082367	      4.49783689	    -15.36700174	      4.44479827	     -6.07797967	     -3.61834597	      1.19486023
      1.23183333	      2.44324607	      2.07710005	     -3.34111990	      0.26116076	      1.03150514	      0.25604688	     18.19635097	     -0.85360096	     -0.49250053	    -44.36435579	      4.37562501	    -20.57750553	     -1.75898142	     -3.57185451	      5.50745210	      1.93084910	     -6.27764947	      4.56484434	    -15.32336515	      4.41218094	     -6.01561680	     -3.53888401	      1.03027162
      1.23600000	      2.43168856	      2.00639654	     -3.25726531	      0.26632146	      1.03147907	      0.25607608	     18.34023618	     -0.77851867	     -0.52453707	    -42.89654822	      4.24500943	    -20.66754939	     -1.74336212	     -4.05825813	      5.43337727	      2.03071607	     -5.93262717	      4.67240949	    -15.30035919	      4.35266499	     -6.05988515	     -3.48617335	      0.71134554
      1.24016667	      2.37974280	      1.94540534	     -3.17301948	      0.27151008	      1.03135203	      0.25609930	     18.51187715	     -0.72071711	     -0.57241509	    -41.40255823	      4.13686128	    -20.68470981	     -1.72574212	     -4.48980796	      5.36590884	      2.10290615	     -5.61003193	      4.75800536	    -15.26895056	      4.29256835	     -6.04322363	     -3.42843752	      0.46840235
      1.24433333	      2.31570150	      1.88357960	     -3.08963368	      0.27671009	      1.03117401	      0.25611595	     18.67615919	     -0.66963713	     -0.63729119	    -39.87263578	      4.03766521	    -20.63165708	     -1.71622519	     -4.89524687	      5.29519398	      2.14323759	     -5.31484350	      4.83332748	    -15.21994408	      4.25906071	     -6.00046070	     -3.35670904	      0.30961451
      1.24850000	      2.28711434	      1.82721484	     -3.01312026	      0.28189006	      1.03099852	      0.25617979	     18.78334275	     -0.61694982	     -0.68235858	    -38.30627787	      3.86507002	    -20.70691846	     -1.69940141	     -5.35149439	      5.23106548	      2.22551327	     -4.99436381	      4.94690927	    -15.18161361	      4.20406677	     -6.02560897	     -3.32402428	      0.03292474
      1.25266667	      2.22984848	      1.78501479	     -2.94138251	      0.28710641	      1.03072669	      0.25623090	     18.91025340	     -0.58934369	     -0.75039642	    -36.72641942	      3.71832887	    -20.69176253	     -1.67727519	     -5.77074346	      5.18112030	      2.28133255	     -4.68674885	      5.04642780	    -15.14276341	      4.14712873	     -5.98901408	     -3.28226537	     -0.18547825
      1.25683333	      2.16071422	      1.73528140	     -2.87004166	      0.29233053	      1.03040976	      0.25630992	     19.02539601	     -0.55210143	     -0.82506336	    -35.10585383	      3.55238625	    -20.66899156	     -1.65186331	     -6.16896781	      5.11925551	      2.33135144	     -4.39886339	      5.15232818	    -15.09678042	      4.09101610	     -5.95228639	     -3.24001569	     -0.38444203
      1.26100000	      2.10020552	      1.69683623	     -2.80416915	      0.29756598	      1.03005259	      0.25638689	     19.11732682	     -0.53160978	     -0.90839816	    -33.46747787	      3.38303705	    -20.61754871	     -1.62192803	     -6.57581941	      5.07094339	      2.37678223	     -4.11301900	      5.26567854	    -15.04643593	      4.03602997	     -5.91544064	     -3.20686723	     -0.57520556
